# xmcd CD database file
#
# Track frame offsets:
#	150
#	20935
#	35843
#	57336
#	75612
#	95888
#	108323
#	126134
#	150019
#	176016
#	195101
#
# Disc length: 3037 seconds
#
# Revision: 0
# Processed by: cddbd v1.5.2PL0 Copyright (c) Steve Scherf et al.
# Submitted via: CDex 1.51
#
DISCID=890bdb0b
DTITLE=R.L. Burnside - Burnside on Burnside
DYEAR=2001
DGENRE=Blues
TTITLE0=Shake 'Em on Down
TTITLE1=Skinny Woman
TTITLE2=Miss Maybelle
TTITLE3=Rollin' and Tumblin'
TTITLE4=Long Haired Doney
TTITLE5=Walkin' Blues
TTITLE6=He Ain't Your Daddy
TTITLE7=Bad Luck and Trouble
TTITLE8=Jumper on the Line
TTITLE9=Goin' Down South
TTITLE10=Alice Mae
EXTD=YEAR: 2001
EXTT0=
EXTT1=
EXTT2=
EXTT3=
EXTT4=
EXTT5=
EXTT6=
EXTT7=
EXTT8=
EXTT9=
EXTT10=
PLAYORDER=
